<?xml version="1.0" encoding="utf-8"?>
<!-- Generator: Adobe Illustrator 15.0.0, SVG Export Plug-In . SVG Version: 6.00 Build 0)  -->
<!DOCTYPE svg PUBLIC "-//W3C//DTD SVG 1.1//EN" "http://www.w3.org/Graphics/SVG/1.1/DTD/svg11.dtd">
<svg version="1.1" id="Layer_1" xmlns="http://www.w3.org/2000/svg" xmlns:xlink="http://www.w3.org/1999/xlink" x="0px" y="0px"
	 width="200px" height="150px" viewBox="0 0 200 150" enable-background="new 0 0 200 150" xml:space="preserve">
<g>
	<g>
		<g>
			<path fill-rule="evenodd" clip-rule="evenodd" fill="#E3D2A2" d="M10.007,94.156h40.017c1.721,0,3.131,1.438,3.131,3.195v3.196
				H6.876v-3.196C6.876,95.594,8.287,94.156,10.007,94.156"/>
			<path fill-rule="evenodd" clip-rule="evenodd" fill="#F6E5C3" d="M10.008,94.156h40.016c1.721,0,3.131,1.438,3.131,3.195v1.428
				c-0.315,0.096-0.649,0.148-0.995,0.148H7.871c-0.345,0-0.679-0.053-0.995-0.148v-1.428C6.876,95.594,8.287,94.156,10.008,94.156"
				/>
			<path fill="#7B3B1A" d="M7.012,103.009c0,1.373,1.09,2.463,2.462,2.463h41.211c1.373,0,2.462-1.09,2.462-2.463l0,0
				c0-1.371-1.089-2.461-2.462-2.461H9.474C8.103,100.548,7.012,101.636,7.012,103.009L7.012,103.009z"/>
		</g>
		<path fill="#7B3B1A" d="M6.688,102.847c0.041,1.453,1.252,2.623,2.705,2.584l0,0c1.453-0.041,2.624-1.252,2.583-2.744
			c-0.525-17.438-2.785-34.794-6.781-51.788c-0.324-1.452-1.777-2.341-3.189-2.018l0,0c-1.413,0.363-2.26,1.776-1.938,3.188
			C3.944,68.74,6.164,85.734,6.688,102.847z"/>
		<g>
			<path fill="#7B3B1A" d="M49.846,147.279h1.926c0.781,0,1.376-0.522,1.376-1.211v-42.826c0-0.687-0.595-1.21-1.376-1.21h-1.926
				c-0.78,0-1.377,0.523-1.377,1.21v42.826C48.469,146.757,49.066,147.279,49.846,147.279z"/>
			<path fill="#7B3B1A" d="M8.061,147.279h1.926c0.78,0,1.375-0.522,1.375-1.211v-42.826c0-0.687-0.596-1.21-1.375-1.21H8.061
				c-0.734,0-1.376,0.523-1.376,1.21v42.826C6.685,146.757,7.28,147.279,8.061,147.279z"/>
			<path fill="#7B3B1A" d="M7.876,126.613v0.769c0,0.686,0.643,1.211,1.376,1.211h40.181c0.779,0,1.376-0.525,1.376-1.211v-0.769
				c0-0.646-0.597-1.21-1.376-1.21H9.252C8.473,125.403,7.876,125.927,7.876,126.613z"/>
			<path fill="#7B3B1A" d="M7.876,133.474v0.769c0,0.646,0.643,1.211,1.376,1.211h40.181c0.779,0,1.376-0.563,1.376-1.211v-0.769
				c0-0.645-0.597-1.209-1.376-1.209H9.252C8.473,132.265,7.876,132.789,7.876,133.474z"/>
		</g>
	</g>
	<g>
		<g>
			<path fill="#7B3B1A" d="M192.989,103.009c0-1.371-1.09-2.461-2.463-2.461h-41.212c-1.372,0-2.463,1.09-2.463,2.461l0,0
				c0,1.373,1.091,2.463,2.463,2.463h41.212C191.899,105.47,192.989,104.382,192.989,103.009L192.989,103.009z"/>
			<path fill-rule="evenodd" clip-rule="evenodd" fill="#E3D2A2" d="M150.008,94.156h40.016c1.722,0,3.132,1.438,3.132,3.195v3.196
				h-46.278v-3.196C146.877,95.594,148.287,94.156,150.008,94.156"/>
			<path fill-rule="evenodd" clip-rule="evenodd" fill="#F6E5C3" d="M150.008,94.156h40.016c1.722,0,3.132,1.438,3.132,3.195v1.428
				c-0.315,0.096-0.649,0.148-0.995,0.148h-44.289c-0.346,0-0.68-0.053-0.994-0.148v-1.428
				C146.877,95.594,148.287,94.156,150.008,94.156"/>
		</g>
		<path fill="#7B3B1A" d="M199.931,52.07c0.324-1.413-0.523-2.825-1.938-3.188l0,0c-1.412-0.323-2.865,0.565-3.188,2.018
			c-3.996,16.993-6.257,34.351-6.781,51.788c-0.041,1.492,1.13,2.703,2.584,2.744l0,0c1.452,0.039,2.662-1.131,2.704-2.584
			C193.835,85.734,196.057,68.74,199.931,52.07z"/>
		<g>
			<path fill="#7B3B1A" d="M151.53,146.068v-42.826c0-0.687-0.596-1.21-1.375-1.21h-1.928c-0.777,0-1.376,0.523-1.376,1.21v42.826
				c0,0.688,0.599,1.211,1.376,1.211h1.928C150.935,147.279,151.53,146.757,151.53,146.068z"/>
			<path fill="#7B3B1A" d="M193.317,146.068v-42.826c0-0.687-0.644-1.21-1.378-1.21h-1.926c-0.778,0-1.376,0.523-1.376,1.21v42.826
				c0,0.688,0.598,1.211,1.376,1.211h1.926C192.72,147.279,193.317,146.757,193.317,146.068z"/>
			<path fill="#7B3B1A" d="M190.747,125.403h-40.18c-0.779,0-1.377,0.564-1.377,1.21v0.769c0,0.686,0.598,1.211,1.377,1.211h40.18
				c0.733,0,1.377-0.525,1.377-1.211v-0.769C192.124,125.927,191.528,125.403,190.747,125.403z"/>
			<path fill="#7B3B1A" d="M190.747,132.265h-40.18c-0.779,0-1.377,0.564-1.377,1.209v0.769c0,0.646,0.598,1.211,1.377,1.211h40.18
				c0.733,0,1.377-0.563,1.377-1.211v-0.769C192.124,132.789,191.528,132.265,190.747,132.265z"/>
		</g>
	</g>
	<g>
		<path fill="#7B3B1A" d="M151.667,70.194c0,1.452-1.171,2.664-2.664,2.664H50.998c-1.454,0-2.665-1.171-2.665-2.664l0,0
			c0-1.453,1.17-2.665,2.665-2.665h98.005C150.496,67.57,151.667,68.74,151.667,70.194L151.667,70.194z"/>
		<path fill="#7B3B1A" d="M148.398,74.675c0,1.09-0.89,1.978-1.979,1.978H53.58c-1.089,0-1.977-0.888-1.977-1.978l0,0
			c0-1.091,0.888-1.979,1.977-1.979h92.84C147.509,72.696,148.398,73.583,148.398,74.675L148.398,74.675z"/>
		<path fill="#443524" d="M100,81.495c11.504,0,20.829-3.673,20.829-8.154H79.172C79.172,77.823,88.496,81.495,100,81.495z"/>
		<path fill="#7B3B1A" d="M103.956,137.318c0,1.614-1.735,2.946-3.916,2.946l0,0c-2.179,0-3.915-1.332-3.915-2.946v-61.03
			c0-1.615,1.735-2.947,3.915-2.947l0,0c2.181,0,3.916,1.332,3.916,2.947V137.318z"/>
		<polygon fill="#19A1D0" points="144.158,67.57 100,112.939 54.267,67.57 		"/>
		<g>
			<g>
				
					<line fill="none" stroke="#FFFFFF" stroke-linecap="round" stroke-linejoin="round" x1="140.688" y1="67.973" x2="140.002" y2="68.7"/>
				
					<line fill="none" stroke="#FFFFFF" stroke-linecap="round" stroke-linejoin="round" stroke-dasharray="5.1783,5.1783" x1="138.548" y1="70.194" x2="101.373" y2="108.418"/>
				<polyline fill="none" stroke="#FFFFFF" stroke-linecap="round" stroke-linejoin="round" points="100.646,109.144 99.96,109.871 
					99.233,109.144 				"/>
				
					<line fill="none" stroke="#FFFFFF" stroke-linecap="round" stroke-linejoin="round" stroke-dasharray="4.9108,4.9108" x1="97.819" y1="107.772" x2="59.151" y2="69.386"/>
				
					<line fill="none" stroke="#FFFFFF" stroke-linecap="round" stroke-linejoin="round" x1="58.425" y1="68.659" x2="57.698" y2="67.973"/>
			</g>
		</g>
		<path fill="#7B3B1A" d="M95.363,121.816c0-0.839,0.678-1.515,1.514-1.515l6.247-0.002c0.835,0,1.513,0.678,1.513,1.517H95.363z"/>
		<rect x="95.363" y="123.834" fill="#7B3B1A" width="9.273" height="0.757"/>
		<path fill="#7B3B1A" d="M104.637,121.816c0.559,0,1.01,0.45,1.01,1.008s-0.451,1.01-1.01,1.01h-9.273
			c-0.558,0-1.01-0.452-1.01-1.01s0.452-1.008,1.01-1.008H104.637z"/>
		<rect x="95.363" y="126.61" fill="#7B3B1A" width="9.273" height="0.756"/>
		<path fill="#7B3B1A" d="M104.637,124.591c0.559,0,1.01,0.452,1.01,1.01c0,0.559-0.451,1.01-1.01,1.01h-9.273
			c-0.558,0-1.01-0.451-1.01-1.01c0-0.558,0.452-1.01,1.01-1.01H104.637z"/>
		<path fill="#7B3B1A" d="M94.353,128.376c0-0.559,0.452-1.01,1.01-1.01h9.273c0.558,0,1.009,0.451,1.009,1.01v10.896
			c0,0.558-0.451,1.009-1.009,1.009h-9.275c-0.558,0-1.009-0.451-1.009-1.009L94.353,128.376z"/>
		<path fill="#7B3B1A" d="M104.132,130.827c0-0.589,0.185-1.584,1.364-1.584c2.691,0,4.535,2.616,6.82,6.488
			c2.364,4.007,3.121,6.047,5.578,7.861c2.445,1.812,5.107,2.121,6.562,2.992c1.454,0.87,1.603,2.051,1.345,3.413
			c-2.176,0-4.757,0-6.417,0c-3.991,0-13.964-6.001-15.252-9.72V130.827z"/>
		<path fill="#7B3B1A" d="M124.456,146.587c-1.453-0.871-4.115-1.183-6.562-2.992c-2.457-1.815-3.213-3.855-5.578-7.862
			c-2.285-3.872-4.129-6.488-6.82-6.488c-1.18,0-1.364,0.995-1.364,1.584v0.045c1.187-0.229,2.577-0.396,3.765,1.086
			c1.973,2.454,4.992,8.302,7.373,11.399c2.795,3.639,8.824,2.898,9.311,6.642c0.414,0,0.824,0,1.222,0
			C126.059,148.636,125.91,147.456,124.456,146.587z"/>
		<path fill="#7B3B1A" d="M95.868,130.827c0-0.589-0.185-1.584-1.364-1.584c-2.691,0-4.534,2.616-6.821,6.488
			c-2.365,4.007-3.122,6.047-5.578,7.861c-2.445,1.812-5.107,2.121-6.56,2.992c-1.454,0.87-1.602,2.051-1.344,3.413
			c2.175,0,4.756,0,6.415,0c3.992,0,13.964-6.001,15.252-9.72V130.827z"/>
		<path fill="#7B3B1A" d="M75.544,146.587c1.453-0.871,4.115-1.183,6.56-2.992c2.457-1.815,3.213-3.855,5.578-7.862
			c2.288-3.872,4.13-6.488,6.821-6.488c1.18,0,1.364,0.995,1.364,1.584v0.045c-1.188-0.229-2.577-0.396-3.766,1.084
			c-1.97,2.455-4.993,8.304-7.372,11.401c-2.794,3.639-8.823,2.898-9.31,6.642c-0.414,0-0.825,0-1.22,0
			C73.942,148.636,74.09,147.456,75.544,146.587z"/>
	</g>
</g>
<g id="BACKGROUND">
</g>
<g id="DESIGNED_BY_FREEPIK">
</g>
<g>
	<g>
		<defs>
			<rect id="SVGID_1_" x="69.118" y="42.832" width="10.509" height="24.753"/>
		</defs>
		<clipPath id="SVGID_2_">
			<use xlink:href="#SVGID_1_"  overflow="visible"/>
		</clipPath>
		<g clip-path="url(#SVGID_2_)">
			<defs>
				<path id="SVGID_3_" d="M78.57,42.998c0,0-1.175-0.166-4.24-0.166c-3.064,0-4.154,0.166-4.154,0.166s-1.236,4.811-1.036,6.696
					c0.346,3.245,3.252,5.723,3.687,6.881c0.169,0.451,0.478,0.985,0.478,0.985s0.594,0.803,0.594,3.551
					c0,6.088-0.42,6.062-0.42,6.062s0.418,0.133,0.891,0.133c0.536,0,0.955-0.134,0.955-0.134s-0.441,0.028-0.441-6.061
					c0-2.883,0.542-3.511,0.563-3.559c0.03-0.038,0.294-0.499,0.474-0.978c0.434-1.159,3.341-3.636,3.686-6.881
					C79.806,47.809,78.57,42.998,78.57,42.998"/>
			</defs>
			<clipPath id="SVGID_4_">
				<use xlink:href="#SVGID_3_"  overflow="visible"/>
			</clipPath>
			
				<linearGradient id="SVGID_5_" gradientUnits="userSpaceOnUse" x1="-301.4941" y1="476.8418" x2="-300.8623" y2="476.8418" gradientTransform="matrix(0 38.7528 38.7528 0 -18404.6211 11723.4336)">
				<stop  offset="0" style="stop-color:#D5D7D8"/>
				<stop  offset="0.0033" style="stop-color:#CDCFD0"/>
				<stop  offset="0.0125" style="stop-color:#BBBDBF"/>
				<stop  offset="0.0238" style="stop-color:#AFB1B4"/>
				<stop  offset="0.0391" style="stop-color:#A8AAAD"/>
				<stop  offset="0.0769" style="stop-color:#A6A8AB"/>
				<stop  offset="0.0823" style="stop-color:#A3A5A8"/>
				<stop  offset="0.1864" style="stop-color:#767678"/>
				<stop  offset="0.2851" style="stop-color:#525052"/>
				<stop  offset="0.3759" style="stop-color:#383536"/>
				<stop  offset="0.4558" style="stop-color:#292526"/>
				<stop  offset="0.5165" style="stop-color:#231F20"/>
				<stop  offset="0.8959" style="stop-color:#484243"/>
				<stop  offset="1" style="stop-color:#231F20"/>
			</linearGradient>
			<rect x="68.94" y="42.832" clip-path="url(#SVGID_4_)" fill="url(#SVGID_5_)" width="10.865" height="24.475"/>
		</g>
		<path clip-path="url(#SVGID_2_)" fill="#D1D3D4" d="M74.196,63.107c0,3.036-0.091,3.036-0.091,3.036h0.569c0,0-0.09,0-0.09-3.036
			c0-3.666,0.104-4.744,0.166-5.061c0.027-0.142-0.007-0.289-0.104-0.395c-0.061-0.065-0.142-0.117-0.244-0.117
			c-0.111,0-0.196,0.048-0.26,0.111c-0.104,0.103-0.139,0.258-0.111,0.402C74.092,58.366,74.196,59.446,74.196,63.107"/>
		<g clip-path="url(#SVGID_2_)">
			<defs>
				<path id="SVGID_6_" d="M75.074,67.075c0,0.077-0.307,0.139-0.685,0.139c-0.377,0-0.684-0.062-0.684-0.139
					c0-0.078,0.306-0.542,0.684-0.542C74.768,66.533,75.074,66.998,75.074,67.075"/>
			</defs>
			<clipPath id="SVGID_7_">
				<use xlink:href="#SVGID_6_"  overflow="visible"/>
			</clipPath>
			
				<linearGradient id="SVGID_8_" gradientUnits="userSpaceOnUse" x1="-385.6108" y1="523.6719" x2="-384.979" y2="523.6719" gradientTransform="matrix(0 1.0794 1.0794 0 -490.8426 482.7476)">
				<stop  offset="0" style="stop-color:#231F20"/>
				<stop  offset="0.1011" style="stop-color:#231F20"/>
				<stop  offset="0.3146" style="stop-color:#E6E7E8"/>
				<stop  offset="0.9831" style="stop-color:#FFFFFF"/>
				<stop  offset="1" style="stop-color:#FFFFFF"/>
			</linearGradient>
			<rect x="73.706" y="66.533" clip-path="url(#SVGID_7_)" fill="url(#SVGID_8_)" width="1.368" height="0.682"/>
		</g>
		<path clip-path="url(#SVGID_2_)" fill="#FFFFFF" d="M75.125,67.216c0,0-0.243,0.123-0.739,0.122
			c-0.373-0.002-0.741-0.12-0.741-0.12s0.395,0.058,0.74,0.059C74.73,67.278,75.125,67.216,75.125,67.216"/>
		<path clip-path="url(#SVGID_2_)" fill="#D1D3D4" d="M73.622,56.984c0-0.096,0.331-0.225,0.754-0.225s0.78,0.128,0.78,0.225
			s0.164,0.393-0.742,0.393C73.531,57.377,73.622,57.081,73.622,56.984"/>
		<path clip-path="url(#SVGID_2_)" fill="#EBEBEB" d="M78.44,43.023h-4.026h-4.029c0,0-1.173,4.731-0.983,6.615
			c0.328,3.245,3.635,6.273,3.757,7c0.066,0.398,0.516-0.141,1.254-0.147c0.737,0.006,1.188,0.545,1.254,0.147
			c0.121-0.727,3.428-3.755,3.756-7C79.614,47.755,78.44,43.023,78.44,43.023"/>
		<g clip-path="url(#SVGID_2_)">
			<defs>
				<path id="SVGID_9_" d="M79.572,67.584c-0.111-0.327-2.387-0.588-5.182-0.588c-2.794,0-5.07,0.261-5.181,0.588H79.572z"/>
			</defs>
			<clipPath id="SVGID_10_">
				<use xlink:href="#SVGID_9_"  overflow="visible"/>
			</clipPath>
			
				<linearGradient id="SVGID_11_" gradientUnits="userSpaceOnUse" x1="-399.5825" y1="531.3262" x2="-398.9512" y2="531.3262" gradientTransform="matrix(0 0.9314 0.9314 0 -420.4725 439.1572)">
				<stop  offset="0" style="stop-color:#D5D7D8"/>
				<stop  offset="0.0033" style="stop-color:#CDCFD0"/>
				<stop  offset="0.0125" style="stop-color:#BBBDBF"/>
				<stop  offset="0.0238" style="stop-color:#AFB1B4"/>
				<stop  offset="0.0391" style="stop-color:#A8AAAD"/>
				<stop  offset="0.0769" style="stop-color:#A6A8AB"/>
				<stop  offset="0.0823" style="stop-color:#A3A5A8"/>
				<stop  offset="0.1864" style="stop-color:#767678"/>
				<stop  offset="0.2851" style="stop-color:#525052"/>
				<stop  offset="0.3759" style="stop-color:#383536"/>
				<stop  offset="0.4558" style="stop-color:#292526"/>
				<stop  offset="0.5165" style="stop-color:#231F20"/>
				<stop  offset="1" style="stop-color:#231F20"/>
			</linearGradient>
			<rect x="69.209" y="66.997" clip-path="url(#SVGID_10_)" fill="url(#SVGID_11_)" width="10.363" height="0.588"/>
		</g>
		<g clip-path="url(#SVGID_2_)">
			<defs>
				<path id="SVGID_12_" d="M74.39,67.306c-2.696,0-4.882,0.073-4.882,0.162h9.764C79.272,67.379,77.087,67.306,74.39,67.306"/>
			</defs>
			<clipPath id="SVGID_13_">
				<use xlink:href="#SVGID_12_"  overflow="visible"/>
			</clipPath>
			
				<linearGradient id="SVGID_14_" gradientUnits="userSpaceOnUse" x1="-295.9531" y1="488.8965" x2="-295.3218" y2="488.8965" gradientTransform="matrix(15.4597 0 0 -6.9755 4644.8584 3477.6772)">
				<stop  offset="0" style="stop-color:#FFFFFF"/>
				<stop  offset="1" style="stop-color:#231F20"/>
			</linearGradient>
			<rect x="69.508" y="67.306" clip-path="url(#SVGID_13_)" fill="url(#SVGID_14_)" width="9.764" height="0.162"/>
		</g>
		<path clip-path="url(#SVGID_2_)" fill="#7E1417" d="M69.388,49.298c0.002,0.127,0.006,0.258,0.015,0.34
			c0.328,3.245,3.635,6.273,3.756,7c0.067,0.398,0.517-0.141,1.255-0.147c0.737,0.007,1.188,0.545,1.254,0.147
			c0.121-0.727,3.428-3.755,3.756-7c0.009-0.082,0.014-0.221,0.017-0.34H69.388z"/>
		<rect x="74.258" y="59.518" clip-path="url(#SVGID_2_)" fill="#F1F2F2" width="0.119" height="6.322"/>
		<g clip-path="url(#SVGID_2_)">
			<g>
				<defs>
					<rect id="SVGID_15_" x="74.639" y="49.822" width="4.194" height="5.641"/>
				</defs>
				<clipPath id="SVGID_16_">
					<use xlink:href="#SVGID_15_"  overflow="visible"/>
				</clipPath>
				<path clip-path="url(#SVGID_16_)" fill="#FFFFFF" d="M78.833,49.904c-0.104-0.113-1.311-0.086-2.211-0.049
					c-0.44,0.019-0.78,0.389-0.765,0.831c0.011,0.372-0.037,0.913-0.221,1.692c-0.498,2.118-1.35,2.907-0.841,3.072
					c0.509,0.165,1.962-1.186,2.958-2.813C78.75,51.008,78.833,49.904,78.833,49.904"/>
			</g>
		</g>
	</g>
</g>
<g>
	<g>
		<defs>
			<rect id="SVGID_17_" x="120.96" y="42.832" width="10.509" height="24.753"/>
		</defs>
		<clipPath id="SVGID_18_">
			<use xlink:href="#SVGID_17_"  overflow="visible"/>
		</clipPath>
		<g clip-path="url(#SVGID_18_)">
			<defs>
				<path id="SVGID_19_" d="M130.412,42.998c0,0-1.176-0.166-4.24-0.166s-4.154,0.166-4.154,0.166s-1.236,4.811-1.035,6.696
					c0.346,3.245,3.252,5.723,3.686,6.881c0.17,0.451,0.479,0.985,0.479,0.985s0.594,0.803,0.594,3.551
					c0,6.088-0.421,6.062-0.421,6.062s0.419,0.133,0.892,0.133c0.535,0,0.954-0.134,0.954-0.134s-0.44,0.028-0.44-6.061
					c0-2.883,0.541-3.511,0.563-3.559c0.029-0.038,0.295-0.499,0.475-0.978c0.434-1.159,3.341-3.636,3.686-6.881
					C131.647,47.809,130.412,42.998,130.412,42.998"/>
			</defs>
			<clipPath id="SVGID_20_">
				<use xlink:href="#SVGID_19_"  overflow="visible"/>
			</clipPath>
			
				<linearGradient id="SVGID_21_" gradientUnits="userSpaceOnUse" x1="-301.4941" y1="478.1797" x2="-300.8623" y2="478.1797" gradientTransform="matrix(0 38.7528 38.7528 0 -18404.6211 11723.4336)">
				<stop  offset="0" style="stop-color:#D5D7D8"/>
				<stop  offset="0.0033" style="stop-color:#CDCFD0"/>
				<stop  offset="0.0125" style="stop-color:#BBBDBF"/>
				<stop  offset="0.0238" style="stop-color:#AFB1B4"/>
				<stop  offset="0.0391" style="stop-color:#A8AAAD"/>
				<stop  offset="0.0769" style="stop-color:#A6A8AB"/>
				<stop  offset="0.0823" style="stop-color:#A3A5A8"/>
				<stop  offset="0.1864" style="stop-color:#767678"/>
				<stop  offset="0.2851" style="stop-color:#525052"/>
				<stop  offset="0.3759" style="stop-color:#383536"/>
				<stop  offset="0.4558" style="stop-color:#292526"/>
				<stop  offset="0.5165" style="stop-color:#231F20"/>
				<stop  offset="0.8959" style="stop-color:#484243"/>
				<stop  offset="1" style="stop-color:#231F20"/>
			</linearGradient>
			<rect x="120.781" y="42.832" clip-path="url(#SVGID_20_)" fill="url(#SVGID_21_)" width="10.865" height="24.475"/>
		</g>
		<path clip-path="url(#SVGID_18_)" fill="#D1D3D4" d="M126.037,63.107c0,3.036-0.09,3.036-0.09,3.036h0.568c0,0-0.09,0-0.09-3.036
			c0-3.666,0.104-4.744,0.166-5.061c0.027-0.142-0.006-0.289-0.104-0.395c-0.061-0.065-0.143-0.117-0.244-0.117
			c-0.111,0-0.196,0.048-0.261,0.111c-0.104,0.103-0.14,0.258-0.111,0.402C125.934,58.366,126.037,59.446,126.037,63.107"/>
		<g clip-path="url(#SVGID_18_)">
			<defs>
				<path id="SVGID_22_" d="M126.916,67.075c0,0.077-0.307,0.139-0.685,0.139s-0.684-0.062-0.684-0.139
					c0-0.078,0.306-0.542,0.684-0.542S126.916,66.998,126.916,67.075"/>
			</defs>
			<clipPath id="SVGID_23_">
				<use xlink:href="#SVGID_22_"  overflow="visible"/>
			</clipPath>
			
				<linearGradient id="SVGID_24_" gradientUnits="userSpaceOnUse" x1="-385.6108" y1="571.7021" x2="-384.979" y2="571.7021" gradientTransform="matrix(0 1.0794 1.0794 0 -490.8426 482.7476)">
				<stop  offset="0" style="stop-color:#231F20"/>
				<stop  offset="0.1011" style="stop-color:#231F20"/>
				<stop  offset="0.3146" style="stop-color:#E6E7E8"/>
				<stop  offset="0.9831" style="stop-color:#FFFFFF"/>
				<stop  offset="1" style="stop-color:#FFFFFF"/>
			</linearGradient>
			<rect x="125.548" y="66.533" clip-path="url(#SVGID_23_)" fill="url(#SVGID_24_)" width="1.368" height="0.682"/>
		</g>
		<path clip-path="url(#SVGID_18_)" fill="#FFFFFF" d="M126.967,67.216c0,0-0.243,0.123-0.739,0.122
			c-0.372-0.002-0.741-0.12-0.741-0.12s0.395,0.058,0.74,0.059C126.572,67.278,126.967,67.216,126.967,67.216"/>
		<path clip-path="url(#SVGID_18_)" fill="#D1D3D4" d="M125.464,56.984c0-0.096,0.331-0.225,0.754-0.225s0.78,0.128,0.78,0.225
			s0.164,0.393-0.742,0.393C125.373,57.377,125.464,57.081,125.464,56.984"/>
		<path clip-path="url(#SVGID_18_)" fill="#EBEBEB" d="M130.282,43.023h-4.026h-4.029c0,0-1.173,4.731-0.982,6.615
			c0.327,3.245,3.635,6.273,3.757,7c0.065,0.398,0.517-0.141,1.254-0.147c0.737,0.006,1.188,0.545,1.255,0.147
			c0.121-0.727,3.428-3.755,3.756-7C131.455,47.755,130.282,43.023,130.282,43.023"/>
		<g clip-path="url(#SVGID_18_)">
			<defs>
				<path id="SVGID_25_" d="M131.414,67.584c-0.111-0.327-2.387-0.588-5.183-0.588c-2.794,0-5.07,0.261-5.181,0.588H131.414z"/>
			</defs>
			<clipPath id="SVGID_26_">
				<use xlink:href="#SVGID_25_"  overflow="visible"/>
			</clipPath>
			
				<linearGradient id="SVGID_27_" gradientUnits="userSpaceOnUse" x1="-399.5825" y1="586.9883" x2="-398.9512" y2="586.9883" gradientTransform="matrix(0 0.9314 0.9314 0 -420.4725 439.1572)">
				<stop  offset="0" style="stop-color:#D5D7D8"/>
				<stop  offset="0.0033" style="stop-color:#CDCFD0"/>
				<stop  offset="0.0125" style="stop-color:#BBBDBF"/>
				<stop  offset="0.0238" style="stop-color:#AFB1B4"/>
				<stop  offset="0.0391" style="stop-color:#A8AAAD"/>
				<stop  offset="0.0769" style="stop-color:#A6A8AB"/>
				<stop  offset="0.0823" style="stop-color:#A3A5A8"/>
				<stop  offset="0.1864" style="stop-color:#767678"/>
				<stop  offset="0.2851" style="stop-color:#525052"/>
				<stop  offset="0.3759" style="stop-color:#383536"/>
				<stop  offset="0.4558" style="stop-color:#292526"/>
				<stop  offset="0.5165" style="stop-color:#231F20"/>
				<stop  offset="1" style="stop-color:#231F20"/>
			</linearGradient>
			<rect x="121.051" y="66.997" clip-path="url(#SVGID_26_)" fill="url(#SVGID_27_)" width="10.363" height="0.588"/>
		</g>
		<g clip-path="url(#SVGID_18_)">
			<defs>
				<path id="SVGID_28_" d="M126.231,67.306c-2.696,0-4.882,0.073-4.882,0.162h9.764C131.113,67.379,128.929,67.306,126.231,67.306"
					/>
			</defs>
			<clipPath id="SVGID_29_">
				<use xlink:href="#SVGID_28_"  overflow="visible"/>
			</clipPath>
			
				<linearGradient id="SVGID_30_" gradientUnits="userSpaceOnUse" x1="-292.5996" y1="488.8965" x2="-291.9683" y2="488.8965" gradientTransform="matrix(15.4597 0 0 -6.9755 4644.8584 3477.6772)">
				<stop  offset="0" style="stop-color:#FFFFFF"/>
				<stop  offset="1" style="stop-color:#231F20"/>
			</linearGradient>
			<rect x="121.35" y="67.306" clip-path="url(#SVGID_29_)" fill="url(#SVGID_30_)" width="9.764" height="0.162"/>
		</g>
		<path clip-path="url(#SVGID_18_)" fill="#7E1417" d="M121.229,49.298c0.002,0.127,0.006,0.258,0.015,0.34
			c0.328,3.245,3.635,6.273,3.756,7c0.066,0.398,0.518-0.141,1.255-0.147c0.737,0.007,1.188,0.545,1.255,0.147
			c0.121-0.727,3.428-3.755,3.756-7c0.008-0.082,0.014-0.221,0.017-0.34H121.229z"/>
		<rect x="126.1" y="59.518" clip-path="url(#SVGID_18_)" fill="#F1F2F2" width="0.119" height="6.322"/>
		<g clip-path="url(#SVGID_18_)">
			<g>
				<defs>
					<rect id="SVGID_31_" x="126.48" y="49.822" width="4.193" height="5.641"/>
				</defs>
				<clipPath id="SVGID_32_">
					<use xlink:href="#SVGID_31_"  overflow="visible"/>
				</clipPath>
				<path clip-path="url(#SVGID_32_)" fill="#FFFFFF" d="M130.674,49.904c-0.104-0.113-1.311-0.086-2.211-0.049
					c-0.44,0.019-0.779,0.389-0.765,0.831c0.011,0.372-0.036,0.913-0.221,1.692c-0.498,2.118-1.35,2.907-0.841,3.072
					c0.509,0.165,1.962-1.186,2.959-2.813C130.592,51.008,130.674,49.904,130.674,49.904"/>
			</g>
		</g>
	</g>
</g>
<g>
	<rect x="23.582" y="37.401" fill="#FCC482" width="6.73" height="7.536"/>
	<path fill="#FCC482" d="M80,67.544v-0.241c0-3.184-1.975-5.763-4.434-5.763h-8.502c-2.459,0-4.434,2.579-4.434,5.763v0.241H80z"/>
	<path fill="#333333" d="M17.819,83.478v6.121c0,2.49,2.378,4.49,5.36,4.49h6.286h32.923c2.942,0,5.36-2,5.36-4.49v-0.816v-0.815
		c0-2.49-2.378-4.489-5.36-4.489H37.445v-4.488H23.18C20.237,78.989,17.819,80.989,17.819,83.478z"/>
	<path fill="#465B2F" d="M38.693,83.382V48.644c0-2.458-1.975-4.433-4.432-4.433h-12.01c-2.458,0-4.433,1.975-4.433,4.433v34.738
		H38.693z"/>
	<path fill="#333333" d="M59.085,141.813h7.093c0.967,0,1.732-0.766,1.732-1.732V87.854c0-2.459-1.975-4.434-4.433-4.434h-1.652
		c-2.458,0-4.433,1.975-4.433,4.434v52.186C57.393,141.007,58.158,141.772,59.085,141.813z"/>
	<g>
		<path fill="#5B5F60" d="M74.842,150c0.926,0,1.732-0.741,1.732-1.687l0,0v-0.247c0-3.497-2.781-6.294-6.166-6.294h-8.583h-2.74
			c-0.968,0-1.733,0.781-1.733,1.771v4.771l0,0c0,0.945,0.807,1.687,1.733,1.687H74.842z"/>
		<path fill="#333333" d="M57.352,148.147v0.166l0,0c0,0.945,0.807,1.687,1.733,1.687h15.716c0.928,0,1.733-0.741,1.733-1.687l0,0
			v-0.166H57.352z"/>
	</g>
	<path fill="#C9C9C9" d="M23.219,49.45c1.129-2.176,3.829-3.022,6.006-1.894l19.504,10.155c2.176,1.128,3.021,3.828,1.894,6.004
		l-0.766,1.451c-1.128,2.175-3.828,3.023-6.005,1.894L24.348,56.905c-2.176-1.128-3.022-3.828-1.895-6.004L23.219,49.45z"/>
	<path fill="#C9C9C9" d="M41.918,63.111c0,2.458,1.975,4.433,4.433,4.433l21.802,0.04V57.066l-21.802-0.04
		c-2.458,0-4.433,1.975-4.433,4.433V63.111z"/>
	<path fill="#FCC482" d="M19.674,16.929c0-1.007,0.805-1.813,1.813-1.813h14.145c1.008,0,1.814,0.806,1.814,1.813v20.754
		c0,1.007-0.807,1.813-1.814,1.813H21.486c-1.008,0-1.813-0.806-1.813-1.813V16.929z"/>
	<path fill="#C4A95C" d="M36.559,10.925c-0.726-0.846-1.814-1.612-1.814-1.612c1.612,2.499,0.283,2.74-0.322,2.942
		c-0.685,0.202-3.707-0.726-9.752-1.33s-5.439,4.433-5.439,4.433c-7.697,8.221,0.563,22.849,0.563,22.849
		c4.11-0.041,3.788-4.151,3.788-4.151c-1.895,0-3.224-4.07-1.49-6.166c1.732-2.096,2.659,0.766,2.659,0.766v3.425h1.772v-5.803
		c0,0-3.143-4.514-1.088-7.496c2.056-2.982,12.01-0.403,12.01-0.403c5.803-3.546,1.571-9.833,1.571-9.833
		C39.742,12.738,37.082,11.61,36.559,10.925z"/>
</g>
<g>
	<rect x="170.018" y="37.567" fill="#EFC295" width="6.73" height="7.536"/>
	<path fill="#EFC295" d="M137.699,67.71v-0.242c0-3.184-1.975-5.763-4.434-5.763h-8.502c-2.459,0-4.434,2.579-4.434,5.763v0.242
		H137.699z"/>
	<path fill="#333333" d="M177.15,79.155h-14.266v4.433h-24.943c-2.982,0-5.36,1.975-5.36,4.434v0.805v0.807
		c0,2.458,2.418,4.433,5.36,4.433h32.923h6.286c2.982,0,5.36-1.975,5.36-4.433v-6.045C182.511,81.13,180.093,79.155,177.15,79.155z"
		/>
	<path fill="#CE5FC3" d="M182.511,83.548V48.811c0-2.458-1.975-4.433-4.433-4.433h-12.01c-2.457,0-4.432,1.975-4.432,4.433v34.737
		H182.511z"/>
	<path fill="#333333" d="M142.938,140.207V88.021c0-2.459-1.975-4.434-4.433-4.434h-1.652c-2.458,0-4.433,1.975-4.433,4.434v52.226
		c0,0.968,0.766,1.733,1.732,1.733h7.093C142.172,141.939,142.938,141.174,142.938,140.207z"/>
	<path fill="#333333" d="M125.569,133.881l19.505-48.762c0.926-2.297-0.202-4.876-2.459-5.803l-1.531-0.604
		c-2.297-0.927-4.876,0.202-5.803,2.499l-19.504,48.76c-0.363,0.887,0.08,1.895,0.967,2.258l6.568,2.619
		C124.199,135.21,125.207,134.767,125.569,133.881z"/>
	<g>
		<path fill="#5B5F60" d="M141.245,150c0.927,0,1.733-0.727,1.733-1.652l0,0v-4.675c0-0.968-0.766-1.733-1.733-1.733h-2.74h-8.583
			c-3.385,0-6.166,2.74-6.166,6.166v0.242l0,0c0,0.926,0.807,1.652,1.732,1.652H141.245z"/>
		<path fill="#333333" d="M123.796,148.186v0.162l0,0c0,0.926,0.806,1.652,1.733,1.652h15.716c0.927,0,1.733-0.727,1.733-1.652l0,0
			v-0.162H123.796z"/>
	</g>
	<g>
		<path fill="#5B5F60" d="M123.555,136.097c0.926,0,1.732-0.726,1.732-1.652l0,0v-4.675c0-0.967-0.766-1.732-1.732-1.732h-2.74
			h-8.584c-3.385,0-6.166,2.74-6.166,6.166v0.241l0,0c0,0.927,0.807,1.652,1.733,1.652H123.555z"/>
		<path fill="#333333" d="M106.105,134.283v0.161l0,0c0,0.927,0.806,1.652,1.732,1.652h15.717c0.926,0,1.732-0.726,1.732-1.652l0,0
			v-0.161H106.105z"/>
	</g>
	<path fill="#824A8E" d="M177.877,51.067c1.128,2.176,0.281,4.876-1.895,6.004l-19.504,10.155c-2.177,1.128-4.877,0.282-6.005-1.894
		l-0.766-1.451c-1.128-2.176-0.282-4.876,1.894-6.004l19.504-10.155c2.177-1.128,4.877-0.282,6.006,1.894L177.877,51.067z"/>
	<path fill="#824A8E" d="M158.412,61.625c0-2.458-1.975-4.433-4.433-4.433l-21.802,0.04v10.518l21.802-0.041
		c2.458,0,4.433-1.975,4.433-4.433V61.625z"/>
	<path fill="#EFC295" d="M180.656,37.85c0,1.007-0.805,1.813-1.813,1.813h-5.924c-5.521,0-10.035-4.473-10.035-10.034V17.096
		c0-1.007,0.807-1.813,1.814-1.813h14.145c1.008,0,1.813,0.806,1.813,1.813V37.85z"/>
	<path fill="#35312E" d="M161.313,8.714c0,0-4.231,6.287,1.571,9.833c0,0,9.954-2.579,12.01,0.403
		c2.055,2.982-1.088,7.496-1.088,7.496l0.443,1.29l1.329,1.168v-0.041c0,0,0.927-2.861,2.659-0.766
		c1.733,2.096-3.304,21.761-5.197,21.761c0,0,11.767,1.007,17.126-3.103c0,0-2.981-5.078-5.44-15.837
		c-1.45-6.407-1.047-15.998-2.9-17.529c-4.676-3.909-15.233-0.927-15.959-0.967C165.182,12.381,160.588,12.905,161.313,8.714z"/>
	<path fill="#333333" d="M137.944,88.651l25.521,5.328c1.202,0.241,2.564-1.481,3.085-3.886l0.32-1.603
		c0.481-2.404-0.08-4.527-1.282-4.769l-25.48-5.328c-0.481-0.08-1.002,0.562-1.202,1.482l-1.442,6.891
		C137.264,87.729,137.504,88.531,137.944,88.651z"/>
</g>
</svg>
