<?xml version="1.0" encoding="utf-8"?>
<!-- Generator: Adobe Illustrator 15.0.0, SVG Export Plug-In . SVG Version: 6.00 Build 0)  -->
<!DOCTYPE svg PUBLIC "-//W3C//DTD SVG 1.1//EN" "http://www.w3.org/Graphics/SVG/1.1/DTD/svg11.dtd">
<svg version="1.1" id="Layer_1" xmlns="http://www.w3.org/2000/svg" xmlns:xlink="http://www.w3.org/1999/xlink" x="0px" y="0px"
	 width="200px" height="150px" viewBox="0 0 200 150" enable-background="new 0 0 200 150" xml:space="preserve">
<g id="BACKGROUND">
</g>
<g id="DESIGNED_BY_FREEPIK">
</g>
<g>
	<g>
		
			<rect x="29.628" y="39.968" transform="matrix(-0.1937 0.9811 -0.9811 -0.1937 82.3764 18.9609)" fill="#FCC482" width="7.536" height="6.73"/>
		<path fill="#FCC482" d="M26.931,38.539c-0.201,0.967,0.443,1.935,1.411,2.096l13.903,2.74c0.967,0.202,1.935-0.443,2.096-1.411
			l4.03-20.391c0.201-0.967-0.443-1.935-1.411-2.096l-13.862-2.74c-0.967-0.202-1.935,0.443-2.096,1.411L26.931,38.539z"/>
		<path fill="#8E8E8E" d="M48.087,23.024c0,0-9.269-4.473-11.848-1.894s-0.403,7.576-0.403,7.576l-1.128,5.722l-1.733-0.363
			l0.645-3.345c0,0-0.363-3.022-2.458-1.29c-2.095,1.733-1.531,5.964,0.282,6.327c0,0-0.483,4.07-4.514,3.345
			c0,0-5.239-15.958,3.869-22.527c0,0,4.957-3.103,10.76-1.37C47.402,16.979,51.069,20.888,48.087,23.024z"/>
	</g>
	<path fill="#333333" d="M21.087,79.28h14.266v4.433h24.945c2.982,0,5.36,1.975,5.36,4.434v0.805v0.807
		c0,2.458-2.418,4.433-5.36,4.433H27.334h-6.247c-2.982,0-5.359-1.975-5.359-4.433v-6.045C15.728,81.255,18.105,79.28,21.087,79.28z
		"/>
	<path fill="#5D5D5D" d="M16.211,83.471l4.795-34.414c0.323-2.418,2.579-4.11,4.997-3.788l11.888,1.652
		c2.418,0.322,4.11,2.579,3.788,4.997l-4.795,34.415L16.211,83.471z"/>
	<path fill="#333333" d="M55.261,140.332V88.146c0-2.459,1.975-4.434,4.433-4.434h1.652c2.458,0,4.433,1.975,4.433,4.434v52.226
		c0,0.968-0.766,1.733-1.733,1.733h-7.092C56.026,142.064,55.261,141.299,55.261,140.332z"/>
	<g>
		<path fill="#5B5F60" d="M56.993,150.125c-0.927,0-1.732-0.727-1.732-1.652l0,0v-4.675c0-0.968,0.766-1.733,1.732-1.733h2.74h8.584
			c3.385,0,6.166,2.74,6.166,6.166v0.242l0,0c0,0.926-0.806,1.652-1.733,1.652H56.993z"/>
		<path fill="#333333" d="M74.442,148.311v0.162l0,0c0,0.926-0.806,1.652-1.733,1.652H56.993c-0.927,0-1.732-0.727-1.732-1.652l0,0
			v-0.162H74.442z"/>
	</g>
	<path fill="#604A1F" d="M25.077,50.951c-1.934,1.491-2.136,4.473-0.483,6.609l14.951,19.142c1.652,2.136,4.594,2.66,6.528,1.129
		l1.29-1.008c1.934-1.532,2.136-4.474,0.483-6.609L32.895,51.071c-1.652-2.136-4.594-2.66-6.528-1.128L25.077,50.951z"/>
	<path fill="#FCC482" d="M57.88,69.447l-0.04-0.242c-0.323-3.143,1.37-5.924,3.828-6.166l8.462-0.887
		c2.458-0.242,4.675,2.096,4.997,5.279l0.041,0.242L57.88,69.447z"/>
	<path fill="#604A1F" d="M37.61,74.122c-0.887-2.297,0.282-4.876,2.579-5.723l20.391-7.697l3.707,9.833l-20.391,7.697
		c-2.297,0.846-4.876-0.282-5.722-2.579L37.61,74.122z"/>
</g>
<rect x="73.475" y="65.756" fill="#333333" width="26.919" height="1.773"/>
<rect x="88.36" y="52.842" transform="matrix(-0.306 0.952 -0.952 -0.306 183.0984 -26.9042)" fill="#333333" width="25.991" height="0.886"/>
<g>
	<path fill="#3D3D3D" d="M189.604,64.412c0,0,1.813,7.536,0.04,14.467c-1.773,6.932-1.37,14.104-6.771,14.749
		c-6.932,0.847-12.613,0.807-13.097-1.088s-5.399-3.264-0.483-10.034c4.916-6.77,10.8-8.825,11.444-12.21
		c0.646-3.385,2.458-7.495,5.239-7.697C188.757,62.397,189.604,64.412,189.604,64.412z"/>
	<path fill="none" stroke="#3D3D3D" stroke-width="2" stroke-miterlimit="10" d="M189.281,64.815c0,0,1.813-4.352,0.039-5.521
		c-1.772-1.169-0.805,2.901-3.184,4.473"/>
	<path fill="none" stroke="#3D3D3D" stroke-miterlimit="10" d="M188.072,65.138c0,0,1.813-4.353,0.039-5.521
		c-1.772-1.169-0.805,2.901-3.183,4.473"/>
	<path fill="#262626" d="M176.345,75.373c0,0,3.305,2.136,5.763-0.725c2.459-2.861,3.748-8.181,3.748-8.181l-0.282-3.788
		c0,0-3.265,1.048-3.989,2.62c-0.726,1.571-5.158,7.455-5.521,8.422C175.74,74.729,176.345,75.373,176.345,75.373z"/>
</g>
<g>
	<g>
		<g>
			<path fill-rule="evenodd" clip-rule="evenodd" fill="#E3D2A2" d="M10.007,94.156h40.017c1.721,0,3.131,1.438,3.131,3.195v3.196
				H6.876v-3.196C6.876,95.594,8.287,94.156,10.007,94.156"/>
			<path fill-rule="evenodd" clip-rule="evenodd" fill="#F6E5C3" d="M10.008,94.156h40.016c1.721,0,3.131,1.438,3.131,3.195v1.428
				c-0.315,0.096-0.649,0.148-0.995,0.148H7.871c-0.345,0-0.679-0.053-0.995-0.148v-1.428C6.876,95.594,8.287,94.156,10.008,94.156"
				/>
			<path fill="#7B3B1A" d="M7.012,103.009c0,1.373,1.09,2.463,2.462,2.463h41.211c1.373,0,2.462-1.09,2.462-2.463l0,0
				c0-1.371-1.089-2.461-2.462-2.461H9.474C8.103,100.548,7.012,101.636,7.012,103.009L7.012,103.009z"/>
		</g>
		<path fill="#7B3B1A" d="M6.688,102.847c0.041,1.453,1.252,2.623,2.705,2.584l0,0c1.453-0.041,2.624-1.252,2.583-2.744
			c-0.525-17.438-2.785-34.794-6.781-51.788c-0.324-1.452-1.777-2.341-3.189-2.018l0,0c-1.413,0.363-2.26,1.776-1.938,3.188
			C3.944,68.74,6.164,85.734,6.688,102.847z"/>
		<g>
			<path fill="#7B3B1A" d="M49.846,147.279h1.926c0.781,0,1.376-0.522,1.376-1.211v-42.826c0-0.687-0.595-1.21-1.376-1.21h-1.926
				c-0.78,0-1.377,0.523-1.377,1.21v42.826C48.469,146.757,49.066,147.279,49.846,147.279z"/>
			<path fill="#7B3B1A" d="M8.061,147.279h1.926c0.78,0,1.375-0.522,1.375-1.211v-42.826c0-0.687-0.596-1.21-1.375-1.21H8.061
				c-0.734,0-1.376,0.523-1.376,1.21v42.826C6.685,146.757,7.28,147.279,8.061,147.279z"/>
			<path fill="#7B3B1A" d="M7.876,126.613v0.769c0,0.686,0.643,1.211,1.376,1.211h40.181c0.779,0,1.376-0.525,1.376-1.211v-0.769
				c0-0.646-0.597-1.21-1.376-1.21H9.252C8.473,125.403,7.876,125.927,7.876,126.613z"/>
			<path fill="#7B3B1A" d="M7.876,133.474v0.769c0,0.646,0.643,1.211,1.376,1.211h40.181c0.779,0,1.376-0.563,1.376-1.211v-0.769
				c0-0.645-0.597-1.209-1.376-1.209H9.252C8.473,132.265,7.876,132.789,7.876,133.474z"/>
		</g>
	</g>
	<g>
		<g>
			<path fill="#7B3B1A" d="M192.989,103.009c0-1.371-1.09-2.461-2.463-2.461h-41.212c-1.372,0-2.463,1.09-2.463,2.461l0,0
				c0,1.373,1.091,2.463,2.463,2.463h41.212C191.899,105.47,192.989,104.382,192.989,103.009L192.989,103.009z"/>
			<path fill-rule="evenodd" clip-rule="evenodd" fill="#E3D2A2" d="M150.008,94.156h40.016c1.722,0,3.132,1.438,3.132,3.195v3.196
				h-46.278v-3.196C146.877,95.594,148.287,94.156,150.008,94.156"/>
			<path fill-rule="evenodd" clip-rule="evenodd" fill="#F6E5C3" d="M150.008,94.156h40.016c1.722,0,3.132,1.438,3.132,3.195v1.428
				c-0.315,0.096-0.649,0.148-0.995,0.148h-44.289c-0.346,0-0.68-0.053-0.994-0.148v-1.428
				C146.877,95.594,148.287,94.156,150.008,94.156"/>
		</g>
		<path fill="#7B3B1A" d="M199.931,52.07c0.324-1.413-0.523-2.825-1.938-3.188l0,0c-1.412-0.323-2.865,0.565-3.188,2.018
			c-3.996,16.993-6.257,34.351-6.781,51.788c-0.041,1.492,1.13,2.703,2.584,2.744l0,0c1.452,0.039,2.662-1.131,2.704-2.584
			C193.835,85.734,196.057,68.74,199.931,52.07z"/>
		<g>
			<path fill="#7B3B1A" d="M151.53,146.068v-42.826c0-0.687-0.596-1.21-1.375-1.21h-1.928c-0.777,0-1.376,0.523-1.376,1.21v42.826
				c0,0.688,0.599,1.211,1.376,1.211h1.928C150.935,147.279,151.53,146.757,151.53,146.068z"/>
			<path fill="#7B3B1A" d="M193.317,146.068v-42.826c0-0.687-0.644-1.21-1.378-1.21h-1.926c-0.778,0-1.376,0.523-1.376,1.21v42.826
				c0,0.688,0.598,1.211,1.376,1.211h1.926C192.72,147.279,193.317,146.757,193.317,146.068z"/>
			<path fill="#7B3B1A" d="M190.747,125.403h-40.18c-0.779,0-1.377,0.564-1.377,1.21v0.769c0,0.686,0.598,1.211,1.377,1.211h40.18
				c0.733,0,1.377-0.525,1.377-1.211v-0.769C192.124,125.927,191.528,125.403,190.747,125.403z"/>
			<path fill="#7B3B1A" d="M190.747,132.265h-40.18c-0.779,0-1.377,0.564-1.377,1.209v0.769c0,0.646,0.598,1.211,1.377,1.211h40.18
				c0.733,0,1.377-0.563,1.377-1.211v-0.769C192.124,132.789,191.528,132.265,190.747,132.265z"/>
		</g>
	</g>
	<g>
		<path fill="#7B3B1A" d="M151.667,70.194c0,1.452-1.171,2.664-2.664,2.664H50.998c-1.454,0-2.665-1.171-2.665-2.664l0,0
			c0-1.453,1.17-2.665,2.665-2.665h98.005C150.496,67.57,151.667,68.74,151.667,70.194L151.667,70.194z"/>
		<path fill="#7B3B1A" d="M148.398,74.675c0,1.09-0.89,1.978-1.979,1.978H53.58c-1.089,0-1.977-0.888-1.977-1.978l0,0
			c0-1.091,0.888-1.979,1.977-1.979h92.84C147.509,72.696,148.398,73.583,148.398,74.675L148.398,74.675z"/>
		<path fill="#443524" d="M100,81.495c11.504,0,20.829-3.673,20.829-8.154H79.172C79.172,77.823,88.496,81.495,100,81.495z"/>
		<path fill="#7B3B1A" d="M103.956,137.318c0,1.614-1.735,2.946-3.916,2.946l0,0c-2.179,0-3.915-1.332-3.915-2.946v-61.03
			c0-1.615,1.735-2.947,3.915-2.947l0,0c2.181,0,3.916,1.332,3.916,2.947V137.318z"/>
		<polygon fill="#19A1D0" points="144.158,67.57 100,112.939 54.267,67.57 		"/>
		<g>
			<g>
				
					<line fill="none" stroke="#FFFFFF" stroke-linecap="round" stroke-linejoin="round" x1="140.688" y1="67.973" x2="140.002" y2="68.7"/>
				
					<line fill="none" stroke="#FFFFFF" stroke-linecap="round" stroke-linejoin="round" stroke-dasharray="5.1783,5.1783" x1="138.548" y1="70.194" x2="101.373" y2="108.418"/>
				<polyline fill="none" stroke="#FFFFFF" stroke-linecap="round" stroke-linejoin="round" points="100.646,109.144 99.96,109.871 
					99.233,109.144 				"/>
				
					<line fill="none" stroke="#FFFFFF" stroke-linecap="round" stroke-linejoin="round" stroke-dasharray="4.9108,4.9108" x1="97.819" y1="107.772" x2="59.151" y2="69.386"/>
				
					<line fill="none" stroke="#FFFFFF" stroke-linecap="round" stroke-linejoin="round" x1="58.425" y1="68.659" x2="57.698" y2="67.973"/>
			</g>
		</g>
		<path fill="#7B3B1A" d="M95.363,121.816c0-0.839,0.678-1.515,1.514-1.515l6.247-0.002c0.835,0,1.513,0.678,1.513,1.517H95.363z"/>
		<rect x="95.363" y="123.834" fill="#7B3B1A" width="9.273" height="0.757"/>
		<path fill="#7B3B1A" d="M104.637,121.816c0.559,0,1.01,0.45,1.01,1.008s-0.451,1.01-1.01,1.01h-9.273
			c-0.558,0-1.01-0.452-1.01-1.01s0.452-1.008,1.01-1.008H104.637z"/>
		<rect x="95.363" y="126.61" fill="#7B3B1A" width="9.273" height="0.756"/>
		<path fill="#7B3B1A" d="M104.637,124.591c0.559,0,1.01,0.452,1.01,1.01c0,0.559-0.451,1.01-1.01,1.01h-9.273
			c-0.558,0-1.01-0.451-1.01-1.01c0-0.558,0.452-1.01,1.01-1.01H104.637z"/>
		<path fill="#7B3B1A" d="M94.353,128.376c0-0.559,0.452-1.01,1.01-1.01h9.273c0.558,0,1.009,0.451,1.009,1.01v10.896
			c0,0.558-0.451,1.009-1.009,1.009h-9.275c-0.558,0-1.009-0.451-1.009-1.009L94.353,128.376z"/>
		<path fill="#7B3B1A" d="M104.132,130.827c0-0.589,0.185-1.584,1.364-1.584c2.691,0,4.535,2.616,6.82,6.488
			c2.364,4.007,3.121,6.047,5.578,7.861c2.445,1.812,5.107,2.121,6.562,2.992c1.454,0.87,1.603,2.051,1.345,3.413
			c-2.176,0-4.757,0-6.417,0c-3.991,0-13.964-6.001-15.252-9.72V130.827z"/>
		<path fill="#7B3B1A" d="M124.456,146.587c-1.453-0.871-4.115-1.183-6.562-2.992c-2.457-1.815-3.213-3.855-5.578-7.862
			c-2.285-3.872-4.129-6.488-6.82-6.488c-1.18,0-1.364,0.995-1.364,1.584v0.045c1.187-0.229,2.577-0.396,3.765,1.086
			c1.973,2.454,4.992,8.302,7.373,11.399c2.795,3.639,8.824,2.898,9.311,6.642c0.414,0,0.824,0,1.222,0
			C126.059,148.636,125.91,147.456,124.456,146.587z"/>
		<path fill="#7B3B1A" d="M95.868,130.827c0-0.589-0.185-1.584-1.364-1.584c-2.691,0-4.534,2.616-6.821,6.488
			c-2.365,4.007-3.122,6.047-5.578,7.861c-2.445,1.812-5.107,2.121-6.56,2.992c-1.454,0.87-1.602,2.051-1.344,3.413
			c2.175,0,4.756,0,6.415,0c3.992,0,13.964-6.001,15.252-9.72V130.827z"/>
		<path fill="#7B3B1A" d="M75.544,146.587c1.453-0.871,4.115-1.183,6.56-2.992c2.457-1.815,3.213-3.855,5.578-7.862
			c2.288-3.872,4.13-6.488,6.821-6.488c1.18,0,1.364,0.995,1.364,1.584v0.045c-1.188-0.229-2.577-0.396-3.766,1.084
			c-1.97,2.455-4.993,8.304-7.372,11.401c-2.794,3.639-8.823,2.898-9.31,6.642c-0.414,0-0.825,0-1.22,0
			C73.942,148.636,74.09,147.456,75.544,146.587z"/>
	</g>
</g>
</svg>
