<?xml version="1.0" encoding="utf-8"?>
<!-- Generator: Adobe Illustrator 15.0.0, SVG Export Plug-In . SVG Version: 6.00 Build 0)  -->
<!DOCTYPE svg PUBLIC "-//W3C//DTD SVG 1.1//EN" "http://www.w3.org/Graphics/SVG/1.1/DTD/svg11.dtd">
<svg version="1.1" id="Layer_1" xmlns="http://www.w3.org/2000/svg" xmlns:xlink="http://www.w3.org/1999/xlink" x="0px" y="0px"
	 width="200px" height="150px" viewBox="0 0 200 150" enable-background="new 0 0 200 150" xml:space="preserve">
<g display="none">
	<g display="inline">
		<rect x="67.929" y="6" fill-rule="evenodd" clip-rule="evenodd" fill="#7F4540" width="64.142" height="65.791"/>
		<polygon fill-rule="evenodd" clip-rule="evenodd" fill="#753E3A" points="132.07,71.791 132.07,6 128.902,9.17 128.902,68.622 		
			"/>
		<polygon fill-rule="evenodd" clip-rule="evenodd" fill="#753E3A" points="67.929,71.791 67.929,6 71.099,9.17 71.099,68.622 		"/>
		<g>
			<defs>
				<rect id="SVGID_1_" x="71.766" y="9.838" width="56.47" height="58.115"/>
			</defs>
			<clipPath id="SVGID_2_">
				<use xlink:href="#SVGID_1_"  overflow="visible"/>
			</clipPath>
			
				<linearGradient id="SVGID_3_" gradientUnits="userSpaceOnUse" x1="-299.0713" y1="475.4453" x2="-298.9297" y2="475.4453" gradientTransform="matrix(399.5292 0 0 -399.5292 119559.5703 189992.9531)">
				<stop  offset="0" style="stop-color:#D0E7EA"/>
				<stop  offset="0.5" style="stop-color:#A9D7DE"/>
				<stop  offset="0.7301" style="stop-color:#9FD2DA"/>
				<stop  offset="1" style="stop-color:#98CFD8"/>
			</linearGradient>
			<rect x="71.766" y="9.838" clip-path="url(#SVGID_2_)" fill="url(#SVGID_3_)" width="56.47" height="58.115"/>
		</g>
		<g>
			<defs>
				<rect id="SVGID_4_" x="71.766" y="9.838" width="56.47" height="58.115"/>
			</defs>
			<clipPath id="SVGID_5_">
				<use xlink:href="#SVGID_4_"  overflow="visible"/>
			</clipPath>
			<path clip-path="url(#SVGID_5_)" fill-rule="evenodd" clip-rule="evenodd" fill="#84A1A4" d="M56.4,65.314
				c0.159-0.023,1.867-0.045,1.867-0.045l0.182-1.686h5.055l-0.045-4.555l7.06-0.068l0.068,0.454h0.456l0.022-1.821h0.592
				l-0.022-2.597l0.501-0.046l0.023-1.64l0.547-0.022l-0.023-0.57l0.432-0.09v-0.456l0.319-0.091l0.022-0.456l1.719-0.069
				l0.08-3.222l1.913-0.092v-0.775l0.251-0.034l-0.012-0.535c0,0,2.756-1.549,2.824-1.549c0.068,0,2.745,1.971,2.745,1.971
				l0.068,0.422l0.353,0.136l0.468-15.305l0.66-0.478c0,0-0.398-0.217-0.365-0.319c0.035-0.103,0.411-0.684,0.411-0.684l0.819-0.24
				l0.843-0.011l0.33-9.259l0.433,9.202l0.557-0.012c0,0,1.231,0.57,1.247,0.621c0.018,0.051-0.125,0.382-0.171,0.433
				c-0.045,0.052-0.096,0.229-0.096,0.229l0.626,0.165l0.046,0.233l0.638,21.876l0.125-3.771l0.523-0.01l0.023-0.685h0.375
				c0,0,0.057-0.296,0.217-0.512c0.159-0.215,0.171-0.25,0.171-0.25v-4.771l0.456-2.426l0.182,0.114l0.66-2.654l1.549,1.686
				l-0.183,0.763l0.251,0.103l0.205-0.729l1.399,1.526l0.023,7.766l0.308,0.092l0.217,0.285l0.045,3.074l3.166,0.023l0.136,4.874
				l1.686,0.466l0.057,0.411l0.307,0.045l0.012-13.164h0.695l0.011-3.611l0.165-0.04l-0.012-2.357l0.143,0.011l0.033,2.34
				l0.844-0.046l0.013-1.321l0.104-0.003l0.027,1.33l0.784-0.016V40.51l0.148-0.005l0.052,2.329h0.345l0.361,0.162l0.08,0.04
				l0.014-1.563l0.104,0.005l0.013,1.648l0.337,0.211l0.07,8.045l0.632,0.416l-0.017,6.883l0.409,0.035l0.058-5.888h0.444
				l0.058-5.318l3.71-0.399l1.094,0.603l0.011,1.765l0.365-0.023l1.196,0.638l0.021,1.583l0.843-1.014l2.357,0.035l0.581,0.728
				l0.033,0.536l0.843-0.022l1.526,0.387V49.64l2.598,0.022l1.775,0.639l0.063,4.896l0.262,0.086l0.006,0.751l1.354,0.575
				l0.034,3.063l0.273,0.012l0.067-0.923h0.81l0.057,0.604h0.25V58.75l1.151-0.022v-5.534l0.5-0.957l0.137-0.934l0.16-0.034
				l0.113-1.104l0.126,0.028l0.08,1.093l0.177,0.063l0.102,0.41l0.791-1.829l0.08-1.497l0.165-0.012l0.092,1.475l0.933,1.754
				l0.011,0.74h0.57l0.045-0.478h1.8l0.137,1.413l0.683,0.683l0.023,2.87l0.614,0.114l0.068,1.412l1.071,0.068l0.112-2.118
				l0.662-0.501l0.023-0.341h1.297l0.068,1.025l1.185,0.113l0.022,3.439l0.081,8.267H56.541L56.4,65.314z"/>
		</g>
	</g>
	<g display="inline">
		<g>
			<defs>
				<rect id="SVGID_6_" x="77.988" y="9.833" width="45.639" height="58.126"/>
			</defs>
			<clipPath id="SVGID_7_">
				<use xlink:href="#SVGID_6_"  overflow="visible"/>
			</clipPath>
			<polygon clip-path="url(#SVGID_7_)" fill-rule="evenodd" clip-rule="evenodd" fill="#E6E7E8" points="111.594,9.833 
				123.627,9.833 90.021,67.958 77.988,67.958 			"/>
		</g>
	</g>
	<g display="inline">
		<g>
			<defs>
				<rect id="SVGID_8_" x="100.36" y="19.744" width="27.875" height="48.215"/>
			</defs>
			<clipPath id="SVGID_9_">
				<use xlink:href="#SVGID_8_"  overflow="visible"/>
			</clipPath>
			<polygon clip-path="url(#SVGID_9_)" fill-rule="evenodd" clip-rule="evenodd" fill="#E6E7E8" points="128.235,19.744 
				128.235,40.557 112.394,67.958 100.36,67.958 			"/>
		</g>
	</g>
</g>
<g>
	<g>
		<g>
			<path fill-rule="evenodd" clip-rule="evenodd" fill="#E3D2A2" d="M10.007,94.156h40.017c1.721,0,3.131,1.438,3.131,3.195v3.196
				H6.876v-3.196C6.876,95.594,8.287,94.156,10.007,94.156"/>
			<path fill-rule="evenodd" clip-rule="evenodd" fill="#F6E5C3" d="M10.008,94.156h40.016c1.721,0,3.131,1.438,3.131,3.195v1.428
				c-0.315,0.096-0.649,0.148-0.995,0.148H7.871c-0.345,0-0.679-0.053-0.995-0.148v-1.428C6.876,95.594,8.287,94.156,10.008,94.156"
				/>
			<path fill="#7B3B1A" d="M7.012,103.009c0,1.373,1.09,2.463,2.462,2.463h41.211c1.373,0,2.462-1.09,2.462-2.463l0,0
				c0-1.371-1.089-2.461-2.462-2.461H9.474C8.103,100.548,7.012,101.636,7.012,103.009L7.012,103.009z"/>
		</g>
		<path fill="#7B3B1A" d="M6.688,102.847c0.041,1.453,1.252,2.623,2.705,2.584l0,0c1.453-0.041,2.624-1.252,2.583-2.744
			c-0.525-17.438-2.785-34.794-6.781-51.788c-0.324-1.452-1.777-2.341-3.189-2.018l0,0c-1.413,0.363-2.26,1.776-1.938,3.188
			C3.944,68.74,6.164,85.734,6.688,102.847z"/>
		<g>
			<path fill="#7B3B1A" d="M49.846,147.279h1.926c0.781,0,1.376-0.522,1.376-1.211v-42.826c0-0.687-0.595-1.21-1.376-1.21h-1.926
				c-0.78,0-1.377,0.523-1.377,1.21v42.826C48.469,146.757,49.066,147.279,49.846,147.279z"/>
			<path fill="#7B3B1A" d="M8.061,147.279h1.926c0.78,0,1.375-0.522,1.375-1.211v-42.826c0-0.687-0.596-1.21-1.375-1.21H8.061
				c-0.734,0-1.376,0.523-1.376,1.21v42.826C6.685,146.757,7.28,147.279,8.061,147.279z"/>
			<path fill="#7B3B1A" d="M7.876,126.613v0.769c0,0.686,0.643,1.211,1.376,1.211h40.181c0.779,0,1.376-0.525,1.376-1.211v-0.769
				c0-0.646-0.597-1.21-1.376-1.21H9.252C8.473,125.403,7.876,125.927,7.876,126.613z"/>
			<path fill="#7B3B1A" d="M7.876,133.474v0.769c0,0.646,0.643,1.211,1.376,1.211h40.181c0.779,0,1.376-0.563,1.376-1.211v-0.769
				c0-0.645-0.597-1.209-1.376-1.209H9.252C8.473,132.265,7.876,132.789,7.876,133.474z"/>
		</g>
	</g>
	<g>
		<g>
			<path fill="#7B3B1A" d="M192.989,103.009c0-1.371-1.09-2.461-2.463-2.461h-41.212c-1.372,0-2.463,1.09-2.463,2.461l0,0
				c0,1.373,1.091,2.463,2.463,2.463h41.212C191.899,105.47,192.989,104.382,192.989,103.009L192.989,103.009z"/>
			<path fill-rule="evenodd" clip-rule="evenodd" fill="#E3D2A2" d="M150.008,94.156h40.016c1.722,0,3.132,1.438,3.132,3.195v3.196
				h-46.278v-3.196C146.877,95.594,148.287,94.156,150.008,94.156"/>
			<path fill-rule="evenodd" clip-rule="evenodd" fill="#F6E5C3" d="M150.008,94.156h40.016c1.722,0,3.132,1.438,3.132,3.195v1.428
				c-0.315,0.096-0.649,0.148-0.995,0.148h-44.289c-0.346,0-0.68-0.053-0.994-0.148v-1.428
				C146.877,95.594,148.287,94.156,150.008,94.156"/>
		</g>
		<path fill="#7B3B1A" d="M199.931,52.07c0.324-1.413-0.523-2.825-1.938-3.188l0,0c-1.412-0.323-2.865,0.565-3.188,2.018
			c-3.996,16.993-6.257,34.351-6.781,51.788c-0.041,1.492,1.13,2.703,2.584,2.744l0,0c1.452,0.039,2.662-1.131,2.704-2.584
			C193.835,85.734,196.057,68.74,199.931,52.07z"/>
		<g>
			<path fill="#7B3B1A" d="M151.53,146.068v-42.826c0-0.687-0.596-1.21-1.375-1.21h-1.928c-0.777,0-1.376,0.523-1.376,1.21v42.826
				c0,0.688,0.599,1.211,1.376,1.211h1.928C150.935,147.279,151.53,146.757,151.53,146.068z"/>
			<path fill="#7B3B1A" d="M193.317,146.068v-42.826c0-0.687-0.644-1.21-1.378-1.21h-1.926c-0.778,0-1.376,0.523-1.376,1.21v42.826
				c0,0.688,0.598,1.211,1.376,1.211h1.926C192.72,147.279,193.317,146.757,193.317,146.068z"/>
			<path fill="#7B3B1A" d="M190.747,125.403h-40.18c-0.779,0-1.377,0.564-1.377,1.21v0.769c0,0.686,0.598,1.211,1.377,1.211h40.18
				c0.733,0,1.377-0.525,1.377-1.211v-0.769C192.124,125.927,191.528,125.403,190.747,125.403z"/>
			<path fill="#7B3B1A" d="M190.747,132.265h-40.18c-0.779,0-1.377,0.564-1.377,1.209v0.769c0,0.646,0.598,1.211,1.377,1.211h40.18
				c0.733,0,1.377-0.563,1.377-1.211v-0.769C192.124,132.789,191.528,132.265,190.747,132.265z"/>
		</g>
	</g>
	<g>
		<path fill="#7B3B1A" d="M151.667,70.194c0,1.452-1.171,2.664-2.664,2.664H50.998c-1.454,0-2.665-1.171-2.665-2.664l0,0
			c0-1.453,1.17-2.665,2.665-2.665h98.005C150.496,67.57,151.667,68.74,151.667,70.194L151.667,70.194z"/>
		<path fill="#7B3B1A" d="M148.398,74.675c0,1.09-0.89,1.978-1.979,1.978H53.58c-1.089,0-1.977-0.888-1.977-1.978l0,0
			c0-1.091,0.888-1.979,1.977-1.979h92.84C147.509,72.696,148.398,73.583,148.398,74.675L148.398,74.675z"/>
		<path fill="#443524" d="M100,81.495c11.504,0,20.829-3.673,20.829-8.154H79.172C79.172,77.823,88.496,81.495,100,81.495z"/>
		<path fill="#7B3B1A" d="M103.956,137.318c0,1.614-1.735,2.946-3.916,2.946l0,0c-2.179,0-3.915-1.332-3.915-2.946v-61.03
			c0-1.615,1.735-2.947,3.915-2.947l0,0c2.181,0,3.916,1.332,3.916,2.947V137.318z"/>
		<polygon fill="#19A1D0" points="144.158,67.57 100,112.939 54.267,67.57 		"/>
		<g>
			<g>
				
					<line fill="none" stroke="#FFFFFF" stroke-linecap="round" stroke-linejoin="round" x1="140.688" y1="67.973" x2="140.002" y2="68.7"/>
				
					<line fill="none" stroke="#FFFFFF" stroke-linecap="round" stroke-linejoin="round" stroke-dasharray="5.1783,5.1783" x1="138.548" y1="70.194" x2="101.373" y2="108.418"/>
				<polyline fill="none" stroke="#FFFFFF" stroke-linecap="round" stroke-linejoin="round" points="100.646,109.144 99.96,109.871 
					99.233,109.144 				"/>
				
					<line fill="none" stroke="#FFFFFF" stroke-linecap="round" stroke-linejoin="round" stroke-dasharray="4.9108,4.9108" x1="97.819" y1="107.772" x2="59.151" y2="69.386"/>
				
					<line fill="none" stroke="#FFFFFF" stroke-linecap="round" stroke-linejoin="round" x1="58.425" y1="68.659" x2="57.698" y2="67.973"/>
			</g>
		</g>
		<path fill="#7B3B1A" d="M95.363,121.816c0-0.839,0.678-1.515,1.514-1.515l6.247-0.002c0.835,0,1.513,0.678,1.513,1.517H95.363z"/>
		<rect x="95.363" y="123.834" fill="#7B3B1A" width="9.273" height="0.757"/>
		<path fill="#7B3B1A" d="M104.637,121.816c0.559,0,1.01,0.45,1.01,1.008s-0.451,1.01-1.01,1.01h-9.273
			c-0.558,0-1.01-0.452-1.01-1.01s0.452-1.008,1.01-1.008H104.637z"/>
		<rect x="95.363" y="126.61" fill="#7B3B1A" width="9.273" height="0.756"/>
		<path fill="#7B3B1A" d="M104.637,124.591c0.559,0,1.01,0.452,1.01,1.01c0,0.559-0.451,1.01-1.01,1.01h-9.273
			c-0.558,0-1.01-0.451-1.01-1.01c0-0.558,0.452-1.01,1.01-1.01H104.637z"/>
		<path fill="#7B3B1A" d="M94.353,128.376c0-0.559,0.452-1.01,1.01-1.01h9.273c0.558,0,1.009,0.451,1.009,1.01v10.896
			c0,0.558-0.451,1.009-1.009,1.009h-9.275c-0.558,0-1.009-0.451-1.009-1.009L94.353,128.376z"/>
		<path fill="#7B3B1A" d="M104.132,130.827c0-0.589,0.185-1.584,1.364-1.584c2.691,0,4.535,2.616,6.82,6.488
			c2.364,4.007,3.121,6.047,5.578,7.861c2.445,1.812,5.107,2.121,6.562,2.992c1.454,0.87,1.603,2.051,1.345,3.413
			c-2.176,0-4.757,0-6.417,0c-3.991,0-13.964-6.001-15.252-9.72V130.827z"/>
		<path fill="#7B3B1A" d="M124.456,146.587c-1.453-0.871-4.115-1.183-6.562-2.992c-2.457-1.815-3.213-3.855-5.578-7.862
			c-2.285-3.872-4.129-6.488-6.82-6.488c-1.18,0-1.364,0.995-1.364,1.584v0.045c1.187-0.229,2.577-0.396,3.765,1.086
			c1.973,2.454,4.992,8.302,7.373,11.399c2.795,3.639,8.824,2.898,9.311,6.642c0.414,0,0.824,0,1.222,0
			C126.059,148.636,125.91,147.456,124.456,146.587z"/>
		<path fill="#7B3B1A" d="M95.868,130.827c0-0.589-0.185-1.584-1.364-1.584c-2.691,0-4.534,2.616-6.821,6.488
			c-2.365,4.007-3.122,6.047-5.578,7.861c-2.445,1.812-5.107,2.121-6.56,2.992c-1.454,0.87-1.602,2.051-1.344,3.413
			c2.175,0,4.756,0,6.415,0c3.992,0,13.964-6.001,15.252-9.72V130.827z"/>
		<path fill="#7B3B1A" d="M75.544,146.587c1.453-0.871,4.115-1.183,6.56-2.992c2.457-1.815,3.213-3.855,5.578-7.862
			c2.288-3.872,4.13-6.488,6.821-6.488c1.18,0,1.364,0.995,1.364,1.584v0.045c-1.188-0.229-2.577-0.396-3.766,1.084
			c-1.97,2.455-4.993,8.304-7.372,11.401c-2.794,3.639-8.823,2.898-9.31,6.642c-0.414,0-0.825,0-1.22,0
			C73.942,148.636,74.09,147.456,75.544,146.587z"/>
	</g>
</g>
<path fill-rule="evenodd" clip-rule="evenodd" fill="#E3D2A2" d="M93.36,573.452h104.17c4.483,0,8.152,3.669,8.152,8.153v8.153
	H85.208v-8.153C85.208,577.121,88.877,573.452,93.36,573.452"/>
<path fill-rule="evenodd" clip-rule="evenodd" fill="#F6E5C3" d="M93.361,573.452h104.168c4.484,0,8.153,3.669,8.153,8.153v3.642
	c-0.821,0.247-1.69,0.381-2.59,0.381H87.798c-0.899,0-1.768-0.134-2.589-0.381v-3.642C85.209,577.121,88.877,573.452,93.361,573.452
	"/>
</svg>
