<svg xmlns="http://www.w3.org/2000/svg" xmlns:xlink="http://www.w3.org/1999/xlink" id="Layer_1" width="200" height="150" x="0" y="0" enable-background="new 0 0 200 150" version="1.1" viewBox="0 0 200 150" xml:space="preserve"><g><g><g><path fill="#E3D2A2" fill-rule="evenodd" d="M10.007,94.156h40.017c1.721,0,3.131,1.438,3.131,3.195v3.196 H6.876v-3.196C6.876,95.594,8.287,94.156,10.007,94.156" clip-rule="evenodd"/><path fill="#F6E5C3" fill-rule="evenodd" d="M10.008,94.156h40.016c1.721,0,3.131,1.438,3.131,3.195v1.428 c-0.315,0.096-0.649,0.148-0.995,0.148H7.871c-0.345,0-0.679-0.053-0.995-0.148v-1.428C6.876,95.594,8.287,94.156,10.008,94.156" clip-rule="evenodd"/><path fill="#7B3B1A" d="M7.012,103.009c0,1.373,1.09,2.463,2.462,2.463h41.211c1.373,0,2.462-1.09,2.462-2.463l0,0 c0-1.371-1.089-2.461-2.462-2.461H9.474C8.103,100.548,7.012,101.636,7.012,103.009L7.012,103.009z"/></g><path fill="#7B3B1A" d="M6.688,102.847c0.041,1.453,1.252,2.623,2.705,2.584l0,0c1.453-0.041,2.624-1.252,2.583-2.744 c-0.525-17.438-2.785-34.794-6.781-51.788c-0.324-1.452-1.777-2.341-3.189-2.018l0,0c-1.413,0.363-2.26,1.776-1.938,3.188 C3.944,68.74,6.164,85.734,6.688,102.847z"/><g><path fill="#7B3B1A" d="M49.846,147.279h1.926c0.781,0,1.376-0.522,1.376-1.211v-42.826c0-0.687-0.595-1.21-1.376-1.21h-1.926 c-0.78,0-1.377,0.523-1.377,1.21v42.826C48.469,146.757,49.066,147.279,49.846,147.279z"/><path fill="#7B3B1A" d="M8.061,147.279h1.926c0.78,0,1.375-0.522,1.375-1.211v-42.826c0-0.687-0.596-1.21-1.375-1.21H8.061 c-0.734,0-1.376,0.523-1.376,1.21v42.826C6.685,146.757,7.28,147.279,8.061,147.279z"/><path fill="#7B3B1A" d="M7.876,126.613v0.769c0,0.686,0.643,1.211,1.376,1.211h40.181c0.779,0,1.376-0.525,1.376-1.211v-0.769 c0-0.646-0.597-1.21-1.376-1.21H9.252C8.473,125.403,7.876,125.927,7.876,126.613z"/><path fill="#7B3B1A" d="M7.876,133.474v0.769c0,0.646,0.643,1.211,1.376,1.211h40.181c0.779,0,1.376-0.563,1.376-1.211v-0.769 c0-0.645-0.597-1.209-1.376-1.209H9.252C8.473,132.265,7.876,132.789,7.876,133.474z"/></g></g><g><g><path fill="#7B3B1A" d="M192.989,103.009c0-1.371-1.09-2.461-2.463-2.461h-41.212c-1.372,0-2.463,1.09-2.463,2.461l0,0 c0,1.373,1.091,2.463,2.463,2.463h41.212C191.899,105.47,192.989,104.382,192.989,103.009L192.989,103.009z"/><path fill="#E3D2A2" fill-rule="evenodd" d="M150.008,94.156h40.016c1.722,0,3.132,1.438,3.132,3.195v3.196 h-46.278v-3.196C146.877,95.594,148.287,94.156,150.008,94.156" clip-rule="evenodd"/><path fill="#F6E5C3" fill-rule="evenodd" d="M150.008,94.156h40.016c1.722,0,3.132,1.438,3.132,3.195v1.428 c-0.315,0.096-0.649,0.148-0.995,0.148h-44.289c-0.346,0-0.68-0.053-0.994-0.148v-1.428 C146.877,95.594,148.287,94.156,150.008,94.156" clip-rule="evenodd"/></g><path fill="#7B3B1A" d="M199.931,52.07c0.324-1.413-0.523-2.825-1.938-3.188l0,0c-1.412-0.323-2.865,0.565-3.188,2.018 c-3.996,16.993-6.257,34.351-6.781,51.788c-0.041,1.492,1.13,2.703,2.584,2.744l0,0c1.452,0.039,2.662-1.131,2.704-2.584 C193.835,85.734,196.057,68.74,199.931,52.07z"/><g><path fill="#7B3B1A" d="M151.53,146.068v-42.826c0-0.687-0.596-1.21-1.375-1.21h-1.928c-0.777,0-1.376,0.523-1.376,1.21v42.826 c0,0.688,0.599,1.211,1.376,1.211h1.928C150.935,147.279,151.53,146.757,151.53,146.068z"/><path fill="#7B3B1A" d="M193.317,146.068v-42.826c0-0.687-0.644-1.21-1.378-1.21h-1.926c-0.778,0-1.376,0.523-1.376,1.21v42.826 c0,0.688,0.598,1.211,1.376,1.211h1.926C192.72,147.279,193.317,146.757,193.317,146.068z"/><path fill="#7B3B1A" d="M190.747,125.403h-40.18c-0.779,0-1.377,0.564-1.377,1.21v0.769c0,0.686,0.598,1.211,1.377,1.211h40.18 c0.733,0,1.377-0.525,1.377-1.211v-0.769C192.124,125.927,191.528,125.403,190.747,125.403z"/><path fill="#7B3B1A" d="M190.747,132.265h-40.18c-0.779,0-1.377,0.564-1.377,1.209v0.769c0,0.646,0.598,1.211,1.377,1.211h40.18 c0.733,0,1.377-0.563,1.377-1.211v-0.769C192.124,132.789,191.528,132.265,190.747,132.265z"/></g></g><g><path fill="#7B3B1A" d="M151.667,70.194c0,1.452-1.171,2.664-2.664,2.664H50.998c-1.454,0-2.665-1.171-2.665-2.664l0,0 c0-1.453,1.17-2.665,2.665-2.665h98.005C150.496,67.57,151.667,68.74,151.667,70.194L151.667,70.194z"/><path fill="#7B3B1A" d="M148.398,74.675c0,1.09-0.89,1.978-1.979,1.978H53.58c-1.089,0-1.977-0.888-1.977-1.978l0,0 c0-1.091,0.888-1.979,1.977-1.979h92.84C147.509,72.696,148.398,73.583,148.398,74.675L148.398,74.675z"/><path fill="#443524" d="M100,81.495c11.504,0,20.829-3.673,20.829-8.154H79.172C79.172,77.823,88.496,81.495,100,81.495z"/><path fill="#7B3B1A" d="M103.956,137.318c0,1.614-1.735,2.946-3.916,2.946l0,0c-2.179,0-3.915-1.332-3.915-2.946v-61.03 c0-1.615,1.735-2.947,3.915-2.947l0,0c2.181,0,3.916,1.332,3.916,2.947V137.318z"/><polygon fill="#19A1D0" points="144.158 67.57 100 112.939 54.267 67.57"/><g><g><line x1="140.688" x2="140.002" y1="67.973" y2="68.7" fill="none" stroke="#FFF" stroke-linecap="round" stroke-linejoin="round"/><line x1="138.548" x2="101.373" y1="70.194" y2="108.418" fill="none" stroke="#FFF" stroke-dasharray="5.178 5.178" stroke-linecap="round" stroke-linejoin="round"/><polyline fill="none" stroke="#FFF" stroke-linecap="round" stroke-linejoin="round" points="100.646 109.144 99.96 109.871 99.233 109.144"/><line x1="97.819" x2="59.151" y1="107.772" y2="69.386" fill="none" stroke="#FFF" stroke-dasharray="4.911 4.911" stroke-linecap="round" stroke-linejoin="round"/><line x1="58.425" x2="57.698" y1="68.659" y2="67.973" fill="none" stroke="#FFF" stroke-linecap="round" stroke-linejoin="round"/></g></g><path fill="#7B3B1A" d="M95.363,121.816c0-0.839,0.678-1.515,1.514-1.515l6.247-0.002c0.835,0,1.513,0.678,1.513,1.517H95.363z"/><rect width="9.273" height=".757" x="95.363" y="123.834" fill="#7B3B1A"/><path fill="#7B3B1A" d="M104.637,121.816c0.559,0,1.01,0.45,1.01,1.008s-0.451,1.01-1.01,1.01h-9.273 c-0.558,0-1.01-0.452-1.01-1.01s0.452-1.008,1.01-1.008H104.637z"/><rect width="9.273" height=".756" x="95.363" y="126.61" fill="#7B3B1A"/><path fill="#7B3B1A" d="M104.637,124.591c0.559,0,1.01,0.452,1.01,1.01c0,0.559-0.451,1.01-1.01,1.01h-9.273 c-0.558,0-1.01-0.451-1.01-1.01c0-0.558,0.452-1.01,1.01-1.01H104.637z"/><path fill="#7B3B1A" d="M94.353,128.376c0-0.559,0.452-1.01,1.01-1.01h9.273c0.558,0,1.009,0.451,1.009,1.01v10.896 c0,0.558-0.451,1.009-1.009,1.009h-9.275c-0.558,0-1.009-0.451-1.009-1.009L94.353,128.376z"/><path fill="#7B3B1A" d="M104.132,130.827c0-0.589,0.185-1.584,1.364-1.584c2.691,0,4.535,2.616,6.82,6.488 c2.364,4.007,3.121,6.047,5.578,7.861c2.445,1.812,5.107,2.121,6.562,2.992c1.454,0.87,1.603,2.051,1.345,3.413 c-2.176,0-4.757,0-6.417,0c-3.991,0-13.964-6.001-15.252-9.72V130.827z"/><path fill="#7B3B1A" d="M124.456,146.587c-1.453-0.871-4.115-1.183-6.562-2.992c-2.457-1.815-3.213-3.855-5.578-7.862 c-2.285-3.872-4.129-6.488-6.82-6.488c-1.18,0-1.364,0.995-1.364,1.584v0.045c1.187-0.229,2.577-0.396,3.765,1.086 c1.973,2.454,4.992,8.302,7.373,11.399c2.795,3.639,8.824,2.898,9.311,6.642c0.414,0,0.824,0,1.222,0 C126.059,148.636,125.91,147.456,124.456,146.587z"/><path fill="#7B3B1A" d="M95.868,130.827c0-0.589-0.185-1.584-1.364-1.584c-2.691,0-4.534,2.616-6.821,6.488 c-2.365,4.007-3.122,6.047-5.578,7.861c-2.445,1.812-5.107,2.121-6.56,2.992c-1.454,0.87-1.602,2.051-1.344,3.413 c2.175,0,4.756,0,6.415,0c3.992,0,13.964-6.001,15.252-9.72V130.827z"/><path fill="#7B3B1A" d="M75.544,146.587c1.453-0.871,4.115-1.183,6.56-2.992c2.457-1.815,3.213-3.855,5.578-7.862 c2.288-3.872,4.13-6.488,6.821-6.488c1.18,0,1.364,0.995,1.364,1.584v0.045c-1.188-0.229-2.577-0.396-3.766,1.084 c-1.97,2.455-4.993,8.304-7.372,11.401c-2.794,3.639-8.823,2.898-9.31,6.642c-0.414,0-0.825,0-1.22,0 C73.942,148.636,74.09,147.456,75.544,146.587z"/></g></g><g><rect width="6.73" height="7.536" x="170.159" y="37.401" fill="#FCC482"/><path fill="#FCC482" d="M137.841,67.544v-0.242c0-3.184-1.975-5.763-4.434-5.763h-8.502c-2.459,0-4.434,2.579-4.434,5.763v0.242 H137.841z"/><path fill="#333" d="M177.292,78.989h-14.266v4.488h-24.943c-2.982,0-5.36,1.999-5.36,4.489v0.815v0.816 c0,2.49,2.418,4.49,5.36,4.49h32.923h6.286c2.982,0,5.36-2,5.36-4.49v-6.121C182.652,80.989,180.234,78.989,177.292,78.989z"/><path fill="#C6A726" d="M182.652,83.382V48.644c0-2.458-1.975-4.433-4.433-4.433h-12.01c-2.457,0-4.432,1.975-4.432,4.433v34.738 H182.652z"/><path fill="#333" d="M143.079,140.04V87.854c0-2.459-1.975-4.434-4.433-4.434h-1.652c-2.458,0-4.433,1.975-4.433,4.434v52.227 c0,0.967,0.766,1.732,1.732,1.732h7.093C142.313,141.772,143.079,141.007,143.079,140.04z"/><g><path fill="#5B5F60" d="M141.387,150c0.927,0,1.733-0.741,1.733-1.687l0,0v-4.771c0-0.989-0.766-1.771-1.733-1.771h-2.74h-8.583 c-3.385,0-6.166,2.797-6.166,6.294v0.247l0,0c0,0.945,0.807,1.687,1.732,1.687H141.387z"/><path fill="#333" d="M123.938,148.147v0.166l0,0c0,0.945,0.806,1.687,1.733,1.687h15.716c0.927,0,1.733-0.741,1.733-1.687l0,0 v-0.166H123.938z"/></g><path fill="#A58A1C" d="M178.019,50.901c1.128,2.176,0.281,4.876-1.895,6.004L156.62,67.061c-2.177,1.128-4.877,0.282-6.005-1.894 l-0.766-1.451c-1.128-2.176-0.282-4.876,1.894-6.004l19.504-10.155c2.177-1.128,4.877-0.282,6.006,1.894L178.019,50.901z"/><path fill="#A58A1C" d="M158.554,61.459c0-2.458-1.975-4.433-4.433-4.433l-21.802,0.04v10.518l21.802-0.041 c2.458,0,4.433-1.975,4.433-4.433V61.459z"/><path fill="#FCC482" d="M180.798,37.683c0,1.007-0.805,1.813-1.813,1.813h-14.145c-1.008,0-1.814-0.806-1.814-1.813V16.929 c0-1.007,0.807-1.813,1.814-1.813h14.145c1.008,0,1.813,0.806,1.813,1.813V37.683z"/><path fill="#35312E" d="M161.455,8.547c0,0-4.231,6.287,1.571,9.833c0,0,9.954-2.579,12.01,0.403 c2.055,2.982-1.088,7.496-1.088,7.496v5.803h1.772v-3.425c0,0,0.927-2.861,2.659-0.766c1.733,2.095,0.404,6.166-1.49,6.166 c0,0-0.322,4.11,3.788,4.151c0,0,8.261-14.628,0.563-22.849c0,0,0.605-5.038-5.439-4.433s-9.067,1.532-9.752,1.33 c-0.605-0.202-1.935-0.443-0.322-2.942c0,0-1.089,0.766-1.814,1.612C163.39,11.61,160.729,12.738,161.455,8.547z"/></g></svg>